<svg xmlns="http://www.w3.org/2000/svg" xmlns:xlink="http://www.w3.org/1999/xlink"><symbol id="close" viewBox="0 0 23.332 23.333"><path d="M16.043,11.667L22.609,5.1c0.963-0.963,0.963-2.539,0-3.502l-0.875-0.875c-0.963-0.964-2.539-0.964-3.502,0L11.666,7.29  L5.099,0.723c-0.962-0.963-2.538-0.963-3.501,0L0.722,1.598c-0.962,0.963-0.962,2.539,0,3.502l6.566,6.566l-6.566,6.567  c-0.962,0.963-0.962,2.539,0,3.501l0.876,0.875c0.963,0.963,2.539,0.963,3.501,0l6.567-6.565l6.566,6.565  c0.963,0.963,2.539,0.963,3.502,0l0.875-0.875c0.963-0.963,0.963-2.539,0-3.501L16.043,11.667z"/></symbol><symbol id="ok" viewBox="0 0 226.777 226.777"><g><path d="M107.721,77.342c-5.435-1.521-31.388-7.814-36.522-9.131c-5.491-1.409-20-3.697-23.697,4.673   c-3.696,8.37-13.479,31.741-16.848,40.268c-3.37,8.526,1.957,12.995,6.956,14.3c5,1.305,38.48,10.109,44.459,11.414   s15.218,0.543,18.914-7.718c3.696-8.262,13.696-31.631,16.631-39.676C120.549,83.428,113.156,78.863,107.721,77.342z    M92.695,96.201c-1.44,3.947-6.703,16.117-8.516,20.17c-1.813,4.053-4.653,4.295-7.585,3.655   c-2.934-0.641-15.575-3.664-18.027-4.304c-2.454-0.642-4.985-2.213-3.333-6.396c1.652-4.182,6.828-16.276,8.642-20.381   c1.813-4.106,6.025-3.653,8.718-2.961c2.52,0.645,14.5,3.561,17.167,4.307C92.425,91.037,94.134,92.255,92.695,96.201z" fill="#1D1D1B"/><path d="M170.062,118.05l29.756-17.895l-25.272-6.4l-37.99,24.295L149.68,87.64l-21.196-5.38l-25.844,61.47   l21.36,5.544l9.621-23.235c0,0,18.424,4.811,21.521,5.707c3.099,0.897,2.528,3.506,1.875,5.544c-0.651,2.038-7.5,18.18-7.5,18.18   l20.952,5.219c0,0,8.234-19.729,10.436-25.599c2.201-5.87,1.223-7.99-0.734-10.926C178.215,121.229,170.062,118.05,170.062,118.05z   " fill="#1D1D1B"/><path d="M113.375,0C50.76,0,0,50.76,0,113.375S50.76,226.75,113.375,226.75c62.614,0,113.374-50.76,113.374-113.375   S175.989,0,113.375,0z M113.374,202.619c-49.287,0-89.242-39.955-89.242-89.244c0-49.289,39.955-89.244,89.242-89.244   c49.288,0,89.244,39.955,89.244,89.244C202.618,162.664,162.662,202.619,113.374,202.619z" fill="#1D1D1B"/></g></symbol><symbol id="shopping-cart" viewBox="0 0 1792 1792"><path d="M704 1536q0 52-38 90t-90 38-90-38-38-90 38-90 90-38 90 38 38 90zm896 0q0 52-38 90t-90 38-90-38-38-90 38-90 90-38 90 38 38 90zm128-1088v512q0 24-16.5 42.5t-40.5 21.5l-1044 122q13 60 13 70 0 16-24 64h920q26 0 45 19t19 45-19 45-45 19h-1024q-26 0-45-19t-19-45q0-11 8-31.5t16-36 21.5-40 15.5-29.5l-177-823h-204q-26 0-45-19t-19-45 19-45 45-19h256q16 0 28.5 6.5t19.5 15.5 13 24.5 8 26 5.5 29.5 4.5 26h1201q26 0 45 19t19 45z"/></symbol><symbol id="smile-bad" viewBox="0 0 512 512"><style type="text/css">
	.st0{fill:#FFCE07;}
	.st1{fill:#562A15;}
	.st2{fill:#FFFFFF;}
	.st3{opacity:0.4;}
	.st4{fill:#E45825;}
</style><g><circle class="st0" cx="256" cy="256" r="128"/><g><g><path class="st1" d="M281.8,317.9c-1.4,0-2.8-0.5-4-1.6c-5.4-5-12.7-7.9-20.6-8.2c-8.8-0.4-17.2,2.6-22.9,8.2     c-2.3,2.2-6,2.1-8.2-0.2c-2.2-2.3-2.1-6,0.2-8.2c8.1-7.7,19.5-11.8,31.4-11.4c10.7,0.4,20.7,4.4,28.1,11.3     c2.3,2.2,2.5,5.9,0.3,8.2C284.9,317.2,283.3,317.9,281.8,317.9z"/></g></g><g><g><path class="st1" d="M178.7,215.1c-1,0-2-0.4-2.7-1.3c-1.3-1.5-1.1-3.8,0.4-5.1c8.3-7.1,18.8-11.5,29.6-12.5     c2-0.1,3.7,1.3,3.9,3.3c0.2,2-1.3,3.7-3.3,3.9c-9.4,0.8-18.4,4.7-25.6,10.8C180.3,214.8,179.5,215.1,178.7,215.1z"/></g><g><path class="st1" d="M333.3,215.1c-0.8,0-1.7-0.3-2.3-0.9c-7.1-6.1-16.2-10-25.6-10.8c-2-0.2-3.4-1.9-3.3-3.9     c0.2-2,1.9-3.4,3.9-3.3c10.8,1,21.4,5.4,29.6,12.5c1.5,1.3,1.7,3.6,0.4,5.1C335.3,214.6,334.3,215.1,333.3,215.1z"/></g></g><g><g><g><path class="st2" d="M337.6,248.6c0,15.5-12.1,28-27,28c-14.9,0-27-12.5-27-28c0-15.4,12.1-28,27-28      C325.5,220.6,337.6,233.1,337.6,248.6z"/></g><g><path class="st1" d="M322.1,248.6c0,6.6-5.2,12-11.5,12c-6.4,0-11.6-5.4-11.6-12c0-6.6,5.2-11.9,11.6-11.9      C316.9,236.6,322.1,242,322.1,248.6z"/></g></g><g><g><path class="st2" d="M228.5,248.6c0,15.5-12.1,28-27,28c-14.9,0-27-12.5-27-28c0-15.4,12.1-28,27-28      C216.4,220.6,228.5,233.1,228.5,248.6z"/></g><g><path class="st1" d="M213,248.6c0,6.6-5.2,12-11.5,12c-6.4,0-11.6-5.4-11.6-12c0-6.6,5.2-11.9,11.6-11.9      C207.8,236.6,213,242,213,248.6z"/></g></g></g><g><g class="st3"><path class="st4" d="M356.6,302.2c0,10.9-8.8,19.7-19.7,19.7c-10.9,0-19.7-8.8-19.7-19.7c0-10.9,8.8-19.7,19.7-19.7     C347.8,282.5,356.6,291.3,356.6,302.2z"/></g><g class="st3"><path class="st4" d="M194.9,302.2c0,10.9-8.8,19.7-19.7,19.7c-10.9,0-19.7-8.8-19.7-19.7c0-10.9,8.8-19.7,19.7-19.7     C186,282.5,194.9,291.3,194.9,302.2z"/></g></g></g></symbol><symbol id="smile-good" viewBox="0 0 512 512"><style type="text/css">
	.st0{fill:#FFCE07;}
	.st1{fill:#562A15;}
	.st2{fill:#CD352F;}
</style><g><circle class="st0" cx="256" cy="256" r="128"/><g><g><g><path class="st1" d="M340.6,239.5c1.3,0.8,3.1-0.1,3.1-1.7c0,0,0,0,0,0c0-9.3-7.6-16.9-16.9-16.9c-9.3,0-16.9,7.6-16.9,16.9      c0,0,0,0,0,0c0,1.6,1.8,2.5,3.1,1.7c4-2.5,8.8-3.9,13.8-3.9C331.9,235.6,336.6,237,340.6,239.5z"/></g></g><g><g><path class="st1" d="M199,239.5c1.3,0.8,3.1-0.1,3.1-1.7c0,0,0,0,0,0c0-9.3-7.6-16.9-16.9-16.9c-9.3,0-16.9,7.6-16.9,16.9      c0,0,0,0,0,0c0,1.6,1.8,2.5,3.1,1.7c4-2.5,8.8-3.9,13.8-3.9C190.3,235.6,195,237,199,239.5z"/></g></g></g><g><g><path class="st1" d="M190.5,275.4c-4.1,1.4-6.4,5.8-4.8,9.9c9.5,24.1,37.5,44.4,70.3,44.4c32.8,0,60.7-20.3,70.3-44.4     c1.6-4-0.7-8.5-4.8-9.9C281.9,262,230.1,262,190.5,275.4z"/></g></g><g><g><path class="st2" d="M220.8,321.4c10.5,5.2,22.5,8.3,35.2,8.3c12.7,0,24.7-3.1,35.2-8.3c-9.7-7.3-21.9-11.7-35.2-11.7     C242.7,309.7,230.5,314.1,220.8,321.4z"/></g></g></g></symbol></svg>